<?xml version="1.0" standalone="no"?><!DOCTYPE svg PUBLIC "-//W3C//DTD SVG 1.1//EN" "http://www.w3.org/Graphics/SVG/1.1/DTD/svg11.dtd"><svg t="1590338235198" class="icon" viewBox="0 0 1024 1024" version="1.1" xmlns="http://www.w3.org/2000/svg" p-id="6406" xmlns:xlink="http://www.w3.org/1999/xlink" width="64" height="64"><defs><style type="text/css"></style></defs><path d="M989.59 819.639c3.413 10.142 6.095 23.26 7.704 39.204 1.61 15.897 2.438 3.17 2.438 19.115 0 15.896-1.219 31.013-3.413 45.349-2.438 14.336-6.095 25.063-10.777 32.426-3.413 4.779-13.41 9.753-29.598 15.312C939.706 976.652 770.356 1024 532.252 1024c-217.625 0-405.017-34.621-434.81-41.204-29.842-6.534-47.69-12.142-53.98-16.725-7.704-5.559-13.36-22.04-17.017-49.737-3.658-27.843-2.243-34.816 4.68-78.214 4.243-25.064 14.63-44.13 31.013-56.906a193.585 193.585 0 0 1 58.612-30.427c22.528-7.558 126.781-42.764 150.674-48.957 23.942-6.144 44.861-14.921 62.708-26.478a165.79 165.79 0 0 0 33.646-25.453c7.9-8.144 13.604-16.336 16.628-24.479 3.023-8.143 4.68-16.53 4.68-25.454 0-8.777-0.438-18.334-1.023-28.672-1.463-16.335-6.68-28.867-16.043-37.595a500.06 500.06 0 0 0-31.646-27.453 60.465 60.465 0 0 1-14.58-19.895 323.486 323.486 0 0 1-11.362-25.844 3029.519 3029.519 0 0 1-10.337-31.5 45.154 45.154 0 0 1-14.629-7.168 87.625 87.625 0 0 1-13.556-14.287c-4.876-6.193-8.923-14.97-12.58-26.478-3.413-11.361-4.681-21.943-3.413-31.061 0.975-9.167 2.828-17.067 5.656-23.893 2.633-7.558 6.875-14.483 12.58-21.456a473.088 473.088 0 0 1 4.243-77.434 421.79 421.79 0 0 1 15.018-69.241c7.315-24.479 17.847-46.568 31.647-66.073 13.166-18.286 27.794-33.402 43.983-45.348 16.238-11.947 32.67-21.31 49.25-28.038a243.956 243.956 0 0 1 50.322-14.336A325.388 325.388 0 0 1 521.866 0c19.943 0 39.4 2.39 57.636 7.168 18.237 4.779 35.304 10.728 51.298 18.286 15.847 7.558 30.232 15.75 42.422 24.868 12.581 9.168 22.48 18.53 30.233 28.087 17.213 21.7 30.232 45.544 38.912 71.631 8.728 26.088 14.823 50.518 18.042 73.63a457.387 457.387 0 0 1 5.266 81.384c4.876 2.585 8.777 6.778 11.362 12.337 2.633 4.779 5.07 10.728 6.68 18.286 1.658 7.558 1.853 16.579 0.439 27.502a111.372 111.372 0 0 1-9.753 33.987c-4.68 8.582-9.508 15.116-15.018 19.895a50.42 50.42 0 0 1-19.651 11.166c-2.633 10.728-5.852 21.455-9.314 31.451-3.462 8.778-7.51 17.506-11.8 25.844-4.633 8.582-9.509 15.116-14.97 19.895a159.988 159.988 0 0 1-17.652 13.751 96.939 96.939 0 0 0-14.628 11.557 48.518 48.518 0 0 0-10.338 14.726c-2.633 5.754-4.876 12.678-6.29 20.87-2 10.142-2.633 20.48-2 31.061 0.586 10.338 3.414 21.065 8.29 31.403 4.876 10.386 12.776 20.48 23.893 30.086 11.02 9.557 25.99 17.895 44.666 25.454 17.213 6.777 36.28 12.726 56.564 17.7 20.48 5.169 102.644 39.79 121.515 46.958 18.87 7.168 35.888 16.091 50.712 26.868 14.385 11.946 24.917 26.087 31.208 43.788zM536.592 926.476c3.998 0 10.093-2.048 18.53-6.193 8.484-4.34 16.724-9.02 24.673-14.823 7.997-5.852 15.067-11.654 20.919-17.262 6.095-5.851 8.923-10.142 8.923-13.507 0-3.95-1.17-10.533-3.51-20.285-2.341-9.557-5.413-20.285-8.485-31.549-3.024-11.605-6.535-22.918-9.607-34.133-3.072-11.264-6.095-20.285-8.435-27.404 7.948-5.267 14.774-10.728 20.43-16.726 5.608-6.192 8.437-12.385 8.437-18.773a24.625 24.625 0 0 0-6.583-15.75 68.17 68.17 0 0 0-15.019-13.897c-6.583-4.486-13.166-9.021-20.431-13.507h-59.88a154.088 154.088 0 0 0-20.431 13.507c-4.925 3.95-9.167 8.29-13.166 13.507a25.21 25.21 0 0 0-6.095 15.409c0 3.9 2.828 9.02 8.924 15.408 6.095 6.34 13.409 12.532 22.089 18.188-2.34 5.852-5.657 14.093-9.655 24.967-3.95 10.727-7.705 22.137-11.215 34.133-3.56 11.849-6.827 23.113-9.655 33.646a96.792 96.792 0 0 0-3.999 23.405c0 3.219 2.828 7.705 8.924 13.556 6.095 5.803 13.165 11.605 21.601 17.262 8.436 5.851 16.677 10.727 24.674 14.823 8.192 3.755 14.287 5.998 18.042 5.998z" p-id="6407" fill="#cdcdcd"></path></svg>