<?xml version="1.0" standalone="no"?><!DOCTYPE svg PUBLIC "-//W3C//DTD SVG 1.1//EN" "http://www.w3.org/Graphics/SVG/1.1/DTD/svg11.dtd"><svg t="1591234220293" class="icon" viewBox="0 0 1024 1024" version="1.1" xmlns="http://www.w3.org/2000/svg" p-id="2612" width="64" height="64" xmlns:xlink="http://www.w3.org/1999/xlink"><defs><style type="text/css"></style></defs><path d="M877.715163 1024 146.282789 1024C65.495171 1024 0 959.055742 0 878.937822L0 290.138692c0-80.124064 65.495171-145.072418 146.282789-145.072418l109.715675 0L255.998464 72.530065l98.508997 0C386.18394 29.351995 444.490617 0 511.998976 0c67.510407 0 125.819132 29.351995 157.493563 72.530065L768.001536 72.530065l0 72.534161 109.713627 0c80.791714 0 146.284837 64.948354 146.284837 145.072418l0 588.79913C1024 959.055742 958.506877 1024 877.715163 1024zM694.85707 145.066274l-81.270947 0c0-40.056912-45.482075-72.534161-101.589195-72.534161-56.105072 0-101.587147 32.479297-101.587147 72.534161l-81.266851 0 0 145.072418 365.714139 0L694.85707 145.066274zM950.857582 290.138692c0-40.056912-32.745537-72.536209-73.142418-72.536209L768.001536 217.602483l0 145.066274L255.998464 362.668757 255.998464 217.600435 146.282789 217.600435c-40.394833 0-73.14037 32.481345-73.14037 72.536209l0 588.79913c0 40.056912 32.745537 72.534161 73.14037 72.534161l731.430327 0c40.396881 0 73.142418-32.477249 73.142418-72.534161L950.855534 290.138692zM767.999488 857.601715l-512.001024 0c-20.197416 0-36.569161-16.236576-36.569161-36.264009 0-20.033576 16.371745-36.272201 36.569161-36.272201l512.001024 0c20.199464 0 36.573257 16.238624 36.573257 36.272201C804.572745 841.363091 788.198952 857.601715 767.999488 857.601715zM767.999488 693.333355l-512.001024 0c-20.197416 0-36.569161-16.236576-36.569161-36.266057 0-20.027432 16.371745-36.270153 36.569161-36.270153l512.001024 0c20.199464 0 36.573257 16.240672 36.573257 36.270153C804.572745 677.096778 788.198952 693.333355 767.999488 693.333355zM767.999488 529.06909l-512.001024 0c-20.197416 0-36.569161-16.240672-36.569161-36.261961 0-20.03972 16.371745-36.274249 36.569161-36.274249l512.001024 0c20.199464 0 36.573257 16.234528 36.573257 36.274249C804.572745 512.82637 788.198952 529.06909 767.999488 529.06909z" p-id="2613"></path></svg>