<?xml version="1.0" standalone="no"?><!DOCTYPE svg PUBLIC "-//W3C//DTD SVG 1.1//EN" "http://www.w3.org/Graphics/SVG/1.1/DTD/svg11.dtd"><svg t="1590388045860" class="icon" viewBox="0 0 1024 1024" version="1.1" xmlns="http://www.w3.org/2000/svg" p-id="1416" xmlns:xlink="http://www.w3.org/1999/xlink" width="64" height="64"><defs><style type="text/css"></style></defs><path d="M646.719948 511.9865c0 74.427038-60.333409 134.733447-134.733448 134.733448-74.427038 0-134.733447-60.30641-134.733447-134.733448 0-74.400038 60.30641-134.733447 134.733447-134.733447 21.961421 0 42.386882 5.766848 60.7104 15.089602L970.618408 53.301595 631.575347 451.168104c9.350753 18.350516 15.144601 38.829976 15.144601 60.818396z m-215.574316 0c0 44.650823 36.190046 80.839868 80.840868 80.839869s80.839868-36.189046 80.839869-80.839869-36.189046-80.839868-80.839869-80.839868-80.839868 36.189046-80.839868 80.839868zM511.9865 53.893579c-253.002329 0-458.092921 205.090592-458.092921 458.092921 0 253.002329 205.090592 458.092921 458.092921 458.092922 253.002329 0 458.092921-205.090592 458.092922-458.092922 0-78.980917-19.994473-153.272959-55.186545-218.133248L950.274944 248.340452C996.729719 325.434419 1023.973001 415.436046 1023.973001 511.9865c0 282.778544-229.234956 511.9865-511.986501 511.986501-282.778544 0-511.9865-229.207956-511.9865-511.986501 0-282.751545 229.207956-511.9865 511.9865-511.9865 96.577454 0 186.552081 27.243282 263.646049 73.699057l-45.5128 35.381067C665.259459 73.888052 590.967418 53.893579 511.9865 53.893579z" fill="#cdcdcd" p-id="1417"></path></svg>