<?xml version="1.0" standalone="no"?><!DOCTYPE svg PUBLIC "-//W3C//DTD SVG 1.1//EN" "http://www.w3.org/Graphics/SVG/1.1/DTD/svg11.dtd"><svg t="1590629274360" class="icon" viewBox="0 0 1024 1024" version="1.1" xmlns="http://www.w3.org/2000/svg" p-id="4835" xmlns:xlink="http://www.w3.org/1999/xlink" width="64" height="64"><defs><style type="text/css"></style></defs><path d="M896 64H234.656C157.728 64 96 128.8 96 208c0 5.472 0.992 10.688 1.536 16H96v576c0 88.032 68.544 160 153.92 160H896V288H234.656C193.792 288 160 252.512 160 208s33.792-80 74.656-80H896V64zM464 352h176v172.192l-68.192-53.696a31.968 31.968 0 0 0-39.584 0L464 524.192V352z m-229.344 0H400v238.112a32 32 0 0 0 51.808 25.152L552 536.352l100.192 78.912A32 32 0 0 0 704 590.112V352h128v544H249.92c-49.312 0-89.92-42.656-89.92-96V329.024C181.536 343.392 207.04 352 234.656 352z" p-id="4836" fill="#cdcdcd"></path><path d="M255.776 176H832v64H255.776z" p-id="4837" fill="#cdcdcd"></path></svg>