<?xml version="1.0" standalone="no"?><!DOCTYPE svg PUBLIC "-//W3C//DTD SVG 1.1//EN" "http://www.w3.org/Graphics/SVG/1.1/DTD/svg11.dtd"><svg t="1590629253358" class="icon" viewBox="0 0 1024 1024" version="1.1" xmlns="http://www.w3.org/2000/svg" p-id="3384" xmlns:xlink="http://www.w3.org/1999/xlink" width="64" height="64"><defs><style type="text/css"></style></defs><path d="M255.488 769.024h482.304c79.872 0 145.408-65.536 145.408-145.408V171.008c0-58.88-48.128-107.008-107.008-107.008h-527.36c-58.88 0-107.008 48.128-107.008 107.008v681.472c0 58.88 48.128 107.008 107.008 107.008h527.36c41.984 0 78.848-24.576 96.256-59.904H255.488c-22.016 0-39.936-17.92-39.936-39.936V808.96c0-22.016 17.92-39.936 39.936-39.936z m49.664-446.976h88.576v289.792H305.152V322.048z m165.376-124.416h82.944v413.696H470.528V197.632z m165.376 236.544h82.944v177.152h-82.944V434.176z" fill="#cdcdcd" p-id="3385"></path></svg>