<?xml version="1.0" standalone="no"?><!DOCTYPE svg PUBLIC "-//W3C//DTD SVG 1.1//EN" "http://www.w3.org/Graphics/SVG/1.1/DTD/svg11.dtd"><svg t="1590337434069" class="icon" viewBox="0 0 1024 1024" version="1.1" xmlns="http://www.w3.org/2000/svg" p-id="2281" xmlns:xlink="http://www.w3.org/1999/xlink" width="64" height="64"><defs><style type="text/css"></style></defs><path d="M907.204721 650.665548l-27.343279 52.596626-29.694453 57.124813-27.241685-14.165096 27.256199 14.179609a30.724906 30.724906 0 0 1-44.991595 10.899577l-0.406376-0.217701a63.61231 63.61231 0 0 0-50.680855-5.311911 63.423636 63.423636 0 0 0-37.212404 31.407036 63.322042 63.322042 0 0 0-3.033304 51.885469l0.072567-0.029027a30.724906 30.724906 0 0 1-20.463919 40.448895l-56.587816 17.880531-61.391757 19.389926v0.014514a30.724906 30.724906 0 0 1-39.36039-23.192442c-0.246728-1.088506-0.145134-0.841778-0.290268-1.349748l-0.101594-0.362835a30.333043 30.333043 0 0 1-1.306207-4.165351 63.423636 63.423636 0 0 0-30.623312-34.977337 63.641337 63.641337 0 0 0-46.399397-4.891022 30.608798 30.608798 0 0 1-4.499159 1.422315 63.888065 63.888065 0 0 0-36.486733 33.816263l-27.952842-12.597646 28.010896 12.641187a30.724906 30.724906 0 0 1-43.148391 14.092528L320.746534 879.861442l-57.124813-29.694453 14.150583-27.241685-14.165096 27.256199a30.724906 30.724906 0 0 1-10.91409-44.991595l0.217701-0.406376a63.61231 63.61231 0 0 0 5.311911-50.680855 63.423636 63.423636 0 0 0-31.392523-37.212404 63.322042 63.322042 0 0 0-51.899982-3.033304l0.029027 0.072567a30.724906 30.724906 0 0 1-40.434382-20.463919l-17.895044-56.587816-19.375413-61.391757h-0.029027a30.724906 30.724906 0 0 1 23.294036-39.374903l1.23364-0.261241 0.377349-0.116108a30.91358 30.91358 0 0 1 4.179864-1.306207 63.409122 63.409122 0 0 0 34.962824-30.623312 63.641337 63.641337 0 0 0 4.891022-46.399397 30.608798 30.608798 0 0 1-1.422315-4.499159 63.888065 63.888065 0 0 0-33.816264-36.486733l12.597647-27.952842-12.626674 28.010896a30.724906 30.724906 0 0 1-14.107042-43.148391L144.132752 320.746534l29.708967-57.124813 27.241685 14.150583-27.256199-14.165096a30.724906 30.724906 0 0 1 44.991596-10.91409l0.391862 0.217701a63.61231 63.61231 0 0 0 50.680855 5.311911 63.423636 63.423636 0 0 0 37.212403-31.392523 63.322042 63.322042 0 0 0 3.047818-51.899982l-0.072567 0.029027a30.724906 30.724906 0 0 1 20.449406-40.434382l56.602329-17.895044 61.391757-19.375413v-0.029027a30.724906 30.724906 0 0 1 39.374903 23.294036c0.188674 0.914345 0.130621 0.754698 0.261242 1.23364l0.101593 0.377349c0.536996 1.378775 0.972399 2.772063 1.306208 4.179864a63.409122 63.409122 0 0 0 30.623312 34.962824 63.641337 63.641337 0 0 0 46.41391 4.891022c1.480369-0.580537 2.975251-1.073993 4.484646-1.422315a63.888065 63.888065 0 0 0 36.486732-33.816264l27.952843 12.597647-27.996383-12.626674a30.724906 30.724906 0 0 1 43.133878-14.107042l52.596626 27.343279 57.124813 29.708967-14.165096 27.241685 14.179609-27.256199a30.724906 30.724906 0 0 1 10.899577 44.991596l-0.217701 0.391862a63.61231 63.61231 0 0 0-5.311911 50.680855 63.423636 63.423636 0 0 0 31.407036 37.212403 63.322042 63.322042 0 0 0 51.885469 3.047818l-0.029027-0.072567a30.724906 30.724906 0 0 1 40.448895 20.449406l17.880531 56.602329 19.389926 61.391757h0.014514a30.724906 30.724906 0 0 1-23.192442 39.345876c-1.088506 0.246728-0.841778 0.145134-1.349748 0.290269l-0.362835 0.101593a30.333043 30.333043 0 0 1-4.165351 1.306208 63.423636 63.423636 0 0 0-34.977337 30.623312 63.641337 63.641337 0 0 0-4.891022 46.41391c0.59505 1.480369 1.073993 2.975251 1.422315 4.484646a63.888065 63.888065 0 0 0 33.816263 36.486732l-12.597646 27.952843 12.641187-27.996383a30.724906 30.724906 0 0 1 14.092528 43.133878z m-81.826649 24.266435l14.847226-28.518866a124.278397 124.278397 0 0 1-39.012067-55.96374 31.392523 31.392523 0 0 1-1.161073-3.047817l0.145134-0.043541-0.014514-0.014513 23.94714-7.590518 5.22483-1.654529-29.17197 9.230534a124.452558 124.452558 0 0 1 8.069461-95.208021 124.684773 124.684773 0 0 1 51.348472-52.349898l-10.797983-34.179099-9.68045-30.652339a124.670259 124.670259 0 0 1-70.027241-13.352344 124.670259 124.670259 0 0 1-61.638485-73.220193 124.75734 124.75734 0 0 1-0.798238-73.24922l-31.726331-16.501756-28.518866-14.832713a124.278397 124.278397 0 0 1-55.96374 39.012067c-0.986912 0.435403-2.017365 0.812751-3.047817 1.14656l-0.058054-0.130621-7.590518-23.947139-1.654529-5.210317 9.230534 29.17197a124.452558 124.452558 0 0 1-95.208021-8.069461 124.684773 124.684773 0 0 1-52.349898-51.348472l-34.179099 10.78347-30.652339 9.694963a124.670259 124.670259 0 0 1-13.352344 70.027241 124.670259 124.670259 0 0 1-73.220193 61.638485 124.75734 124.75734 0 0 1-73.24922 0.783725l-16.501756 31.726331-14.832713 28.53338a124.278397 124.278397 0 0 1 39.012067 55.963739c0.435403 0.986912 0.812751 2.002852 1.14656 3.047817l-0.130621 0.043541-23.947139 7.605031-5.210317 1.654529 29.17197-9.245047a124.452558 124.452558 0 0 1-8.069461 95.208021 124.670259 124.670259 0 0 1-51.348472 52.364412l10.78347 34.164585 9.694963 30.652339a124.670259 124.670259 0 0 1 70.027241 13.352344 124.670259 124.670259 0 0 1 61.638485 73.220193 124.75734 124.75734 0 0 1 0.783725 73.263733l31.726331 16.501756 28.53338 14.832713c4.179864-5.152263 8.780618-9.970718 13.773233-14.411824a124.278397 124.278397 0 0 1 42.190506-24.600243c0.986912-0.435403 2.002852-0.812751 3.047817-1.161073l0.043541 0.145134v-0.014514l7.605031 23.94714 1.654529 5.22483-9.245047-29.17197a124.452558 124.452558 0 0 1 95.208021 8.069461 124.670259 124.670259 0 0 1 52.364412 51.348472l34.164585-10.797983 30.652339-9.68045a124.670259 124.670259 0 0 1 13.352344-70.027241 124.670259 124.670259 0 0 1 73.220193-61.638485 124.75734 124.75734 0 0 1 73.263733-0.798238l16.501756-31.726331z" p-id="2282" fill="#ffffff"></path><path d="M686.774931 453.878116l0.058054 0.101594 0.725671 2.29312a183.551195 183.551195 0 0 1-11.930029 140.417317 183.73987 183.73987 0 0 1-105.512548 90.084784l-0.101594 0.058054-2.29312 0.725671a183.551195 183.551195 0 0 1-140.417317-11.930029 183.73987 183.73987 0 0 1-90.084785-105.512548l-0.04354-0.101594-0.725671-2.29312a183.551195 183.551195 0 0 1 11.930029-140.417317 183.73987 183.73987 0 0 1 105.498035-90.084785l0.101594-0.04354 2.29312-0.725671a183.551195 183.551195 0 0 1 140.417317 11.930029 183.73987 183.73987 0 0 1 90.084784 105.498035z m-65.629675 114.728568a122.710948 122.710948 0 0 0 8.127514-93.698626l-0.04354-0.145134a122.50776 122.50776 0 0 0-60.622546-71.913985 122.710948 122.710948 0 0 0-93.698626-8.127514l-0.145134 0.04354a122.50776 122.50776 0 0 0-71.913985 60.622546 122.696434 122.696434 0 0 0-8.127514 93.698626l0.04354 0.159647a122.50776 122.50776 0 0 0 60.622546 71.899472 122.696434 122.696434 0 0 0 93.698626 8.127514l0.159647-0.04354a122.50776 122.50776 0 0 0 71.899472-60.622546z" p-id="2283" fill="#ffffff"></path></svg>