<?xml version="1.0" standalone="no"?><!DOCTYPE svg PUBLIC "-//W3C//DTD SVG 1.1//EN" "http://www.w3.org/Graphics/SVG/1.1/DTD/svg11.dtd"><svg t="1590251419966" class="icon" viewBox="0 0 1024 1024" version="1.1" xmlns="http://www.w3.org/2000/svg" p-id="7235" width="64" height="64" xmlns:xlink="http://www.w3.org/1999/xlink"><defs><style type="text/css"></style></defs><path d="M519.728008 372.900965c-0.896416 0-1.746784 0.169869-2.612501 0.26299-0.077771 0-0.154519 0.01535-0.231267 0.030699-0.881067 0.10847-1.746784 0.215918-2.596128 0.417509-6.707772 1.220804-12.843516 5.069459-16.522302 11.251252l-101.743242 193.038528-101.619422-193.486736c-5.471618-9.211802-16.33606-13.368472-26.444279-11.066033-0.154519 0.030699-0.293689 0.076748-0.448208 0.10847-0.973164 0.232291-1.916653 0.525979-2.874467 0.881067-0.942465 0.339738-1.854231 0.757247-2.750647 1.205455-0.169869 0.093121-0.355087 0.13917-0.525979 0.24764-0.076748 0.030699-0.10847 0.10847-0.185218 0.154519-2.719948 1.529843-5.100158 3.554966-7.001461 6.011924-0.01535 0.01535-0.01535 0.030699-0.030699 0.046049-1.792832 2.317789-3.122107 4.960988-3.925403 7.851828-0.046049 0.154519-0.10847 0.309038-0.154519 0.463558-0.463558 1.854231-0.803295 3.770883-0.803295 5.765307l0 231.832066c0 12.797467 10.386558 23.183002 23.183002 23.183002 12.797467 0 23.183002-10.385535 23.183002-23.183002L295.624974 490.11455l78.497818 149.46922c5.780657 9.752108 17.634636 13.925151 28.221762 10.663874 6.368034-1.375324 12.178367-5.177929 15.702634-11.112082l78.497818-148.944264 0 137.723711c0 12.797467 10.386558 23.183002 23.183002 23.183002 12.797467 0 23.183002-10.385535 23.183002-23.183002L542.91101 396.083967C542.91101 383.2865 532.524452 372.900965 519.728008 372.900965z" p-id="7236"></path><path d="M776.782525 374.972137c-11.529591-5.332449-25.053606-0.01535-30.215162 11.885701l-72.285327 178.432879-72.285327-178.432879c-5.16258-11.901051-18.685571-17.217127-30.215162-11.885701-11.514241 5.332449-16.676821 19.303648-11.498892 31.204699l91.650373 226.2837c1.499144 7.04751 5.718235 13.384845 12.580526 16.568351 3.183506 1.468444 6.507204 2.055822 9.767458 1.9934 3.261277 0.061398 6.583952-0.525979 9.767458-1.9934 6.862291-3.183506 11.081383-9.520841 12.580526-16.568351l91.650373-226.2837C793.459347 394.275785 788.296767 380.303562 776.782525 374.972137z" p-id="7237"></path><path d="M774.742053 110.157889 249.256924 110.157889c-102.422717 0-185.465039 83.042321-185.465039 185.465039l0 432.752098c0 102.423741 83.042321 185.465039 185.465039 185.465039l525.485129 0c102.423741 0 185.465039-83.042321 185.465039-185.465039L960.207092 295.623951C960.208115 193.20021 877.165794 110.157889 774.742053 110.157889zM913.841088 728.376049c0 76.828806-62.270229 139.099035-139.099035 139.099035L249.256924 867.475084c-76.828806 0-139.099035-62.270229-139.099035-139.099035L110.157889 295.623951c0-76.828806 62.270229-139.099035 139.099035-139.099035l525.485129 0c76.828806 0 139.099035 62.270229 139.099035 139.099035L913.841088 728.376049z" p-id="7238"></path></svg>