<?xml version="1.0" standalone="no"?><!DOCTYPE svg PUBLIC "-//W3C//DTD SVG 1.1//EN" "http://www.w3.org/Graphics/SVG/1.1/DTD/svg11.dtd"><svg t="1590552039084" class="icon" viewBox="0 0 1126 1024" version="1.1" xmlns="http://www.w3.org/2000/svg" p-id="10244" xmlns:xlink="http://www.w3.org/1999/xlink" width="70.375" height="64"><defs><style type="text/css"></style></defs><path d="M529.5616 424.2944l221.44 133.4784a96 96 0 0 1 0 164.4544l-221.44 133.4272A96 96 0 0 1 384 773.4272V506.5216a96 96 0 0 1 145.5616-82.2272zM486.4 517.888v244.224l202.7008-122.112L486.4 517.888zM115.2 5.2736l-54.272 54.272 310.272 310.3744 54.272-54.3232zM320 5.2736l-54.272 54.272 310.272 310.3744 54.272-54.3232zM524.8 5.2736l-54.272 54.272 310.272 310.3744 54.272-54.3232zM729.6 5.2736l-54.272 54.272 310.272 310.3744 54.272-54.3232z" fill="#cdcdcd" p-id="10245"></path><path d="M38.4 294.4v76.8h1049.6v-76.8z" fill="#cdcdcd" p-id="10246"></path><path d="M153.6 0h819.2a153.6 153.6 0 0 1 153.6 153.6v716.8a153.6 153.6 0 0 1-153.6 153.6H153.6a153.6 153.6 0 0 1-153.6-153.6V153.6A153.6 153.6 0 0 1 144.5888 0.256L153.6 0z m0 102.4a51.2 51.2 0 0 0-51.2 51.2v716.8a51.2 51.2 0 0 0 51.2 51.2h819.2a51.2 51.2 0 0 0 51.2-51.2V153.6a51.2 51.2 0 0 0-51.2-51.2H153.6z" fill="#cdcdcd" p-id="10247"></path></svg>