<?xml version="1.0" standalone="no"?><!DOCTYPE svg PUBLIC "-//W3C//DTD SVG 1.1//EN" "http://www.w3.org/Graphics/SVG/1.1/DTD/svg11.dtd"><svg t="1590338136768" class="icon" viewBox="0 0 1024 1024" version="1.1" xmlns="http://www.w3.org/2000/svg" p-id="5436" xmlns:xlink="http://www.w3.org/1999/xlink" width="64" height="64"><defs><style type="text/css"></style></defs><path d="M684.49284 131.194461c-187.494319 0-339.50716-141.99037-339.50716 47.985397 0 35.449253 5.285161 76.538159 15.082046 119.94738 49.95122-3.061526 98.162203-16.532242 141.345838-28.520535 41.959024-11.698253 78.213942-21.785177 111.826279-21.785177 40.798867 0 87.430747 14.856459 108.087994 75.668041 0.064453-0.19336 0.128906-0.612305 0.128906-0.612305l150.88491 0c1.450197 5.897467 2.449221 9.345712 2.449221 14.276381 0 33.096711-34.869174 59.941463-77.859449 59.941463-28.00491 0-52.49712-11.343761-66.257876-28.359402 0.966798 9.635751 1.482423 19.980488 1.482423 31.163116 0 34.127962-4.318363 72.864327-12.503918 113.953234 43.248088 13.954115 77.086011 50.466845 86.077231 96.873139l-33.644563-11.73048c-10.473643-26.522486-32.16214-47.083053-58.684626-56.493218-13.567396 57.202203-34.192415 117.627065-60.908261 175.183761 10.538096 2.159182 21.172872 3.416019 32.001007 3.416019 187.494319 0 339.50716-352.945649 339.50716-542.953643S872.019386 131.194461 684.49284 131.194461z" p-id="5437" fill="#cdcdcd"></path><path d="M507.472164 324.070622c-4.576176 1.256837-9.216806 2.545901-13.921888 3.834965-46.245161 12.568371-98.581149 24.943383-154.010889 24.943383C152.01284 352.881196 0 210.987506 0 400.963273c0 189.943541 152.01284 542.88919 339.539386 542.88919 187.462093 0 339.474933-352.945649 339.474933-542.88919C679.014319 272.862565 609.920504 295.61454 507.472164 324.070622zM149.628072 581.818914c-1.41797-2.964847-2.449221-8.733407-2.449221-13.728529 0-33.032258 34.869174-59.458065 77.891676-59.458065s77.891676 26.264673 77.891676 59.458065c0 4.866216-0.999024 10.763682-2.449221 13.728529L149.628072 581.818914zM339.539386 821.93926c-66.902408 0-122.493281-49.532274-134.771613-111.085067l269.543226 0C461.968214 772.406987 406.409567 821.93926 339.539386 821.93926zM527.323745 581.818914l-150.820456 0c-1.450197-2.964847-2.449221-8.733407-2.449221-13.728529 0-33.032258 34.869174-59.458065 77.891676-59.458065s77.891676 26.264673 77.891676 59.458065C529.772966 573.085507 528.806168 578.918521 527.323745 581.818914z" p-id="5438" fill="#cdcdcd"></path></svg>