<?xml version="1.0" standalone="no"?><!DOCTYPE svg PUBLIC "-//W3C//DTD SVG 1.1//EN" "http://www.w3.org/Graphics/SVG/1.1/DTD/svg11.dtd"><svg t="1590551855712" class="icon" viewBox="0 0 1024 1024" version="1.1" xmlns="http://www.w3.org/2000/svg" p-id="7965" xmlns:xlink="http://www.w3.org/1999/xlink" width="64" height="64"><defs><style type="text/css"></style></defs><path d="M866.667116 303.588546c46.943425-15.447195 81.248236-60.183878 76.634139-99.704625a62.190007 62.190007 0 0 0-2.206742-9.228195 26.079681 26.079681 0 0 0-0.802452-7.823904l-54.366104-107.929755c41.727489-5.015323 74.02617 13.441066 85.862333 10.431873 7.623291-2.006129 7.623291-7.823904 0.200613-34.104198-4.81471-17.252712-5.416549-25.277229-19.660067-32.90052A237.485583 237.485583 0 0 0 831.559854 0.863639a22.067422 22.067422 0 0 0-7.222065 0.601838 25.016432 25.016432 0 0 0-18.255777 30.493165l62.390621 123.778177a110.33711 110.33711 0 0 0-18.45639 4.212871c-46.943425 15.447195-81.047623 59.983265-76.634138 99.704625s46.341586 59.381426 93.285011 43.934231z m155.475019 166.50873a37.996088 37.996088 0 0 0-20.863744-24.073552 1067.742245 1067.742245 0 0 0-124.580628-45.137908 38.858724 38.858724 0 0 1-14.644744 22.468648 56.612968 56.612968 0 0 0-8.22513 26.07968 389.189079 389.189079 0 0 1-15.647808 58.378362c-18.456389 51.356909-57.174684 77.235977-115.352433 77.235977a386.280192 386.280192 0 0 1-43.111719-3.209807l-2.527722-0.401226c-90.47643-10.632485-117.358562-85.66172-130.117545-125.583692a180.391144 180.391144 0 0 1-77.837816 107.929755 193.912456 193.912456 0 0 1-89.954837 22.067422 209.700693 209.700693 0 0 1-45.599318-5.015323c-75.029235-16.650873-88.650853-92.683172-97.658373-142.836405a20.64307 20.64307 0 0 0-5.717468-14.845356c-1.40429-1.203678-3.269991-3.009194-5.215936-5.015323-60.785717 13.03984-124.801302 25.076616-193.81215 34.104197a36.110327 36.110327 0 0 0-28.908322 18.055164 20.94399 20.94399 0 0 0-1.865701 7.021452 20.061293 20.061293 0 0 0 0.682084 7.222065 26.701581 26.701581 0 0 0 9.789911 13.441067c92.783479 72.822493 187.713516 143.839469 267.758074 212.248477a1121.967919 1121.967919 0 0 1-84.538287 284.268518 19.339086 19.339086 0 0 0 4.553913 24.474777 23.59208 23.59208 0 0 0 12.799105 4.81471 25.698516 25.698516 0 0 0 4.012258 0.200613 29.650591 29.650591 0 0 0 4.212872-0.401226 40.002218 40.002218 0 0 0 9.067704-2.206742 2960.384785 2960.384785 0 0 0 322.826323-128.994112c81.228174 38.517682 158.363845 82.451913 245.028629 128.592886a25.698516 25.698516 0 0 0 7.823905 2.607968 24.695451 24.695451 0 0 0 4.012258 0.401226 26.882132 26.882132 0 0 0 4.012259-0.200613 33.863462 33.863462 0 0 0 15.447195-5.817775 34.60573 34.60573 0 0 0 16.049034-28.687648 3023.236815 3023.236815 0 0 0-13.240453-310.348199 1513.624537 1513.624537 0 0 1 185.566958-183.159603 18.596818 18.596818 0 0 0 6.620226-11.434936 20.422396 20.422396 0 0 0 0.601839-7.021453 30.653655 30.653655 0 0 0-1.40429-7.222065zM628.659939 697.191109a123.497318 123.497318 0 0 1-68.709927 33.301746 114.590104 114.590104 0 0 1-132.404532-96.695431 109.574781 109.574781 0 0 1 0.702145-31.897455 8.646417 8.646417 0 0 1 15.948728-3.209807 173.570305 173.570305 0 0 0 177.060969 84.056817h0.280859a8.405682 8.405682 0 0 1 7.121758 14.44413z m-121.190269-345.054235a129.254909 129.254909 0 0 0 39.340195 7.021453 135.213113 135.213113 0 0 0 46.140973-10.431872 287.518447 287.518447 0 0 1 85.160188-18.45639c4.975201-0.401226 10.39175-0.200613 15.407073-0.601838-48.688757-66.202266-101.449957-128.592886-153.32846-187.171862a38.63805 38.63805 0 0 0-28.487036-11.836162 28.08581 28.08581 0 0 0-24.916126 12.237388c-31.576475 55.569781-60.183878 118.762853-90.275817 186.36941a353.479978 353.479978 0 0 1 100.647506 19.660067z m0 0l345.555767 12.036776a727.021249 727.021249 0 0 0-173.369691-8.22513c-86.464172 5.215936-99.303399 46.140973-179.789306 20.863745-41.58706-13.03984-86.263559-34.304811-249.883462-15.04597a51.136235 51.136235 0 0 0-10.431872 3.41042c0 8.826969-0.561716 17.252712 0.280858 25.678454 1.745332 17.453325 14.885479 6.419614 21.345215 42.529941 10.451934 58.177749 23.491774 110.33711 77.978245 122.173273a170.24013 170.24013 0 0 0 118.361627-14.644744 160.129239 160.129239 0 0 0 67.767047-104.920561 19.760373 19.760373 0 0 1 20.703254-17.653938 21.10448 21.10448 0 0 1 21.405399 17.052099c11.234324 33.903585 29.028691 110.738336 112.764527 120.56837 42.449695 5.015323 108.451349 14.243518 133.92919-56.773459 19.459454-54.16549 13.240453-82.2513 32.90052-96.695431 8.024517-5.817775 6.018388-19.660067 6.018388-38.317069z m0 0" p-id="7966" fill="#cdcdcd"></path></svg>