<?xml version="1.0" standalone="no"?><!DOCTYPE svg PUBLIC "-//W3C//DTD SVG 1.1//EN" "http://www.w3.org/Graphics/SVG/1.1/DTD/svg11.dtd"><svg t="1590551653945" class="icon" viewBox="0 0 1024 1024" version="1.1" xmlns="http://www.w3.org/2000/svg" p-id="5282" xmlns:xlink="http://www.w3.org/1999/xlink" width="64" height="64"><defs><style type="text/css"></style></defs><path d="M960 64l0 896L64 960 64 64 960 64M1024 0 0 0l0 1024 1024 0L1024 0 1024 0z" p-id="5283" fill="#cdcdcd"></path><path d="M512 896.448c-211.968 0-384.448-172.416-384.448-384.448 0-211.968 172.48-384.448 384.448-384.448 212.032 0 384.448 172.48 384.448 384.448C896.448 724.032 724.032 896.448 512 896.448zM512 191.552C335.296 191.552 191.552 335.296 191.552 512S335.296 832.448 512 832.448 832.448 688.704 832.448 512 688.704 191.552 512 191.552z" p-id="5284" fill="#cdcdcd"></path><path d="M512 670.016c-87.104 0-158.016-70.848-158.016-158.016S424.896 353.984 512 353.984 670.016 424.896 670.016 512 599.104 670.016 512 670.016zM512 417.984C460.16 417.984 417.984 460.16 417.984 512 417.984 563.84 460.16 606.016 512 606.016 563.84 606.016 606.016 563.84 606.016 512 606.016 460.16 563.84 417.984 512 417.984z" p-id="5285" fill="#cdcdcd"></path></svg>