<?xml version="1.0" standalone="no"?><!DOCTYPE svg PUBLIC "-//W3C//DTD SVG 1.1//EN" "http://www.w3.org/Graphics/SVG/1.1/DTD/svg11.dtd"><svg t="1590250992084" class="icon" viewBox="0 0 1024 1024" version="1.1" xmlns="http://www.w3.org/2000/svg" p-id="3692" xmlns:xlink="http://www.w3.org/1999/xlink" width="64" height="64"><defs><style type="text/css"></style></defs><path d="M512 0C230.4 0 0 230.4 0 512s230.4 512 512 512 512-230.4 512-512S793.6 0 512 0z m0 960C265.6 960 64 758.4 64 512S265.6 64 512 64s448 201.6 448 448-201.6 448-448 448z" p-id="3693"></path><path d="M785.6 310.4l-160-112c-9.6-6.4-20.8-8-30.4-3.2s-17.6 12.8-19.2 24L502.4 576c-27.2-28.8-67.2-48-110.4-48-83.2 0-152 68.8-152 152s68.8 152 152 152c78.4 0 144-60.8 152-137.6l60.8-291.2 131.2 86.4c9.6 6.4 20.8 6.4 30.4 3.2 9.6-4.8 17.6-14.4 19.2-25.6l16-128c0-11.2-4.8-22.4-16-28.8zM392 768c-48 0-88-40-88-88s40-88 88-88 88 40 88 88-40 88-88 88z m334.4-360l-100.8-67.2c-3.2-1.6-4.8-3.2-8-4.8l12.8-59.2 104 73.6-8 57.6z" p-id="3694"></path></svg>