<?xml version="1.0" standalone="no"?><!DOCTYPE svg PUBLIC "-//W3C//DTD SVG 1.1//EN" "http://www.w3.org/Graphics/SVG/1.1/DTD/svg11.dtd"><svg t="1590338179533" class="icon" viewBox="0 0 1024 1024" version="1.1" xmlns="http://www.w3.org/2000/svg" p-id="6223" xmlns:xlink="http://www.w3.org/1999/xlink" width="64" height="64"><defs><style type="text/css"></style></defs><path d="M975.128436 981.525237c0 23.028486-18.934533 41.963018-41.963019 41.963019-23.028486 0-41.963018-18.934533-41.963018-41.963019l-0.511744-4.093953c0-1.535232 0.511744-3.070465 0.511744-5.117441-26.098951-183.716142-183.716142-318.816592-375.62019-320.863568h-9.211394c-189.345327 2.046977-345.427286 134.076962-374.596702 314.722639 1.023488 3.582209 1.535232 7.164418 1.535232 11.25837l0.511744 4.093953c0 23.54023-18.934533 42.474763-42.474762 42.474763-23.54023 0-42.474763-18.934533-42.474763-42.474763v-0.511744h-1.023488c0-1.023488 0.511744-2.558721 0.511744-3.582209 0-3.582209 0.511744-6.652674 1.535232-10.234882 22.004998-169.387306 135.10045-306.534733 289.647177-365.385308-90.066967-57.827086-148.405797-159.664168-148.405797-275.830085 0-180.133933 139.706147-325.981009 319.84008-325.981009s319.84008 145.847076 319.84008 325.981009c0 116.165917-58.338831 218.002999-148.405797 275.830085 153.523238 58.338831 266.618691 193.951024 289.647176 361.291355 1.535232 4.605697 2.558721 9.211394 2.558721 13.817091l0.511744 4.605697z m-217.491255-655.032483c0-136.123938-110.024988-246.148926-246.148925-246.148926s-246.148926 110.536732-246.148926 246.148926c0 136.123938 110.536732 246.148926 246.148926 246.148925s246.148926-110.024988 246.148925-246.148925z" fill="#cdcdcd" p-id="6224"></path></svg>